<svg width="400" height="400" viewBox="0 0 400 400" fill="none" xmlns="http://www.w3.org/2000/svg">
  <!-- Background -->
  <rect width="400" height="400" fill="#f8f6f6"/>
  
  <!-- Bottle Shape -->
  <!-- Cap -->
  <rect x="165" y="80" width="70" height="20" rx="5" fill="#1b0d0e"/>
  <!-- Neck -->
  <rect x="175" y="100" width="50" height="40" fill="#9a4c50" opacity="0.3"/>
  <!-- Body -->
  <path d="M 160 140 L 160 320 Q 160 340 180 340 L 220 340 Q 240 340 240 320 L 240 140 Z" fill="#ec131e" opacity="0.4"/>
  <!-- Shoulder -->
  <path d="M 160 140 Q 160 135 165 135 L 235 135 Q 240 135 240 140 Z" fill="#9a4c50" opacity="0.3"/>
  
  <!-- Chili Oil Content -->
  <ellipse cx="200" cy="250" rx="50" ry="60" fill="#ec131e" opacity="0.6"/>
  
  <!-- Chili Flakes inside -->
  <circle cx="190" cy="230" r="3" fill="#c40e18"/>
  <circle cx="210" cy="240" r="2" fill="#c40e18"/>
  <circle cx="195" cy="260" r="2.5" fill="#c40e18"/>
  <circle cx="205" cy="270" r="2" fill="#c40e18"/>
  <circle cx="200" cy="285" r="3" fill="#c40e18"/>
  
  <!-- Label Area -->
  <rect x="165" y="180" width="70" height="90" rx="8" fill="white" opacity="0.9"/>
  
  <!-- Logo/Brand Mark -->
  <circle cx="200" cy="210" r="15" fill="#ec131e"/>
  <path d="M 195 205 L 200 215 L 205 205 Z" fill="white"/>
  
  <!-- Text Lines -->
  <rect x="175" y="235" width="50" height="3" rx="1.5" fill="#1b0d0e" opacity="0.7"/>
  <rect x="180" y="243" width="40" height="2" rx="1" fill="#9a4c50" opacity="0.6"/>
  <rect x="180" y="250" width="40" height="2" rx="1" fill="#9a4c50" opacity="0.6"/>
  
  <!-- Red Ember text at bottom -->
  <text x="200" y="370" font-family="Arial, sans-serif" font-size="16" font-weight="bold" fill="#ec131e" text-anchor="middle">Red Ember</text>
  <text x="200" y="388" font-family="Arial, sans-serif" font-size="12" fill="#9a4c50" text-anchor="middle">Chili Oil</text>
</svg>
