<svg width="400" height="400" viewBox="0 0 400 400" fill="none" xmlns="http://www.w3.org/2000/svg">
  <!-- Background gradient -->
  <defs>
    <linearGradient id="bgGrad1" x1="0%" y1="0%" x2="100%" y2="100%">
      <stop offset="0%" style="stop-color:#fcf8f8;stop-opacity:1" />
      <stop offset="100%" style="stop-color:#f3e7e8;stop-opacity:1" />
    </linearGradient>
    <linearGradient id="oilGrad1" x1="0%" y1="0%" x2="0%" y2="100%">
      <stop offset="0%" style="stop-color:#ec131e;stop-opacity:0.7" />
      <stop offset="100%" style="stop-color:#c40e18;stop-opacity:0.8" />
    </linearGradient>
  </defs>
  
  <rect width="400" height="400" fill="url(#bgGrad1)"/>
  
  <!-- Bottle -->
  <rect x="165" y="75" width="70" height="25" rx="8" fill="#221011"/>
  <rect x="172" y="100" width="56" height="45" fill="#9a4c50" opacity="0.4"/>
  <path d="M 155 145 L 155 310 Q 155 335 180 335 L 220 335 Q 245 335 245 310 L 245 145 Z" fill="url(#oilGrad1)"/>
  <path d="M 155 145 Q 155 138 162 138 L 238 138 Q 245 138 245 145 Z" fill="#9a4c50" opacity="0.5"/>
  
  <!-- Oil with chili flakes -->
  <ellipse cx="200" cy="240" rx="55" ry="75" fill="#ec131e" opacity="0.6"/>
  <circle cx="185" cy="220" r="4" fill="#c40e18"/>
  <circle cx="215" cy="235" r="3" fill="#c40e18"/>
  <circle cx="195" cy="255" r="3.5" fill="#c40e18"/>
  <circle cx="210" cy="270" r="3" fill="#c40e18"/>
  <circle cx="190" cy="285" r="4" fill="#c40e18"/>
  <circle cx="205" cy="295" r="3" fill="#c40e18"/>
  
  <!-- Label -->
  <rect x="160" y="180" width="80" height="100" rx="10" fill="white" opacity="0.95"/>
  <text x="200" y="205" font-family="Arial, sans-serif" font-size="14" font-weight="bold" fill="#ec131e" text-anchor="middle">RED EMBER</text>
  <text x="200" y="225" font-family="Arial, sans-serif" font-size="18" font-weight="bold" fill="#1b0d0e" text-anchor="middle">Original</text>
  <text x="200" y="242" font-family="Arial, sans-serif" font-size="10" fill="#9a4c50" text-anchor="middle">Chili Oil</text>
  <rect x="175" y="250" width="50" height="1" fill="#e7cfd0"/>
  <text x="200" y="265" font-family="Arial, sans-serif" font-size="9" fill="#9a4c50" text-anchor="middle">Classic Blend</text>
</svg>
