<svg width="400" height="400" viewBox="0 0 400 400" fill="none" xmlns="http://www.w3.org/2000/svg">
  <defs>
    <linearGradient id="bgGrad2" x1="0%" y1="0%" x2="100%" y2="100%">
      <stop offset="0%" style="stop-color:#fcf8f8;stop-opacity:1" />
      <stop offset="100%" style="stop-color:#f3e7e8;stop-opacity:1" />
    </linearGradient>
    <linearGradient id="oilGrad2" x1="0%" y1="0%" x2="0%" y2="100%">
      <stop offset="0%" style="stop-color:#ff0000;stop-opacity:0.8" />
      <stop offset="100%" style="stop-color:#c40e18;stop-opacity:0.9" />
    </linearGradient>
  </defs>
  
  <rect width="400" height="400" fill="url(#bgGrad2)"/>
  
  <!-- Bottle -->
  <rect x="165" y="75" width="70" height="25" rx="8" fill="#1b0d0e"/>
  <rect x="172" y="100" width="56" height="45" fill="#9a4c50" opacity="0.4"/>
  <path d="M 155 145 L 155 310 Q 155 335 180 335 L 220 335 Q 245 335 245 310 L 245 145 Z" fill="url(#oilGrad2)"/>
  <path d="M 155 145 Q 155 138 162 138 L 238 138 Q 245 138 245 145 Z" fill="#9a4c50" opacity="0.5"/>
  
  <!-- Extra spicy oil - more chili flakes -->
  <ellipse cx="200" cy="240" rx="55" ry="75" fill="#ff0000" opacity="0.7"/>
  <circle cx="180" cy="215" r="5" fill="#c40e18"/>
  <circle cx="220" cy="225" r="4" fill="#c40e18"/>
  <circle cx="190" cy="245" r="4.5" fill="#c40e18"/>
  <circle cx="210" cy="255" r="4" fill="#c40e18"/>
  <circle cx="185" cy="270" r="5" fill="#c40e18"/>
  <circle cx="215" cy="280" r="4" fill="#c40e18"/>
  <circle cx="195" cy="290" r="4.5" fill="#c40e18"/>
  <circle cx="205" cy="300" r="4" fill="#c40e18"/>
  
  <!-- Flame icons for extra spicy -->
  <path d="M 165 160 Q 165 155 170 155 Q 172 160 170 165 Q 168 160 165 160 Z" fill="#ec131e"/>
  <path d="M 230 160 Q 230 155 235 155 Q 237 160 235 165 Q 233 160 230 160 Z" fill="#ec131e"/>
  
  <!-- Label with warning stripes -->
  <rect x="160" y="180" width="80" height="100" rx="10" fill="#ff0000" opacity="0.15"/>
  <rect x="160" y="180" width="80" height="100" rx="10" fill="white" opacity="0.9"/>
  <text x="200" y="205" font-family="Arial, sans-serif" font-size="14" font-weight="bold" fill="#ec131e" text-anchor="middle">RED EMBER</text>
  <text x="200" y="225" font-family="Arial, sans-serif" font-size="18" font-weight="bold" fill="#ff0000" text-anchor="middle">EXTRA</text>
  <text x="200" y="242" font-family="Arial, sans-serif" font-size="18" font-weight="bold" fill="#ff0000" text-anchor="middle">SPICY</text>
  <rect x="175" y="250" width="50" height="1" fill="#e7cfd0"/>
  <text x="200" y="265" font-family="Arial, sans-serif" font-size="9" fill="#c40e18" text-anchor="middle">⚠ HOT ⚠</text>
</svg>
