<svg width="400" height="400" viewBox="0 0 400 400" fill="none" xmlns="http://www.w3.org/2000/svg">
  <defs>
    <linearGradient id="bgGrad3" x1="0%" y1="0%" x2="100%" y2="100%">
      <stop offset="0%" style="stop-color:#fcf8f8;stop-opacity:1" />
      <stop offset="100%" style="stop-color:#f3e7e8;stop-opacity:1" />
    </linearGradient>
    <linearGradient id="oilGrad3" x1="0%" y1="0%" x2="0%" y2="100%">
      <stop offset="0%" style="stop-color:#ec131e;stop-opacity:0.65" />
      <stop offset="100%" style="stop-color:#9a4c50;stop-opacity:0.75" />
    </linearGradient>
  </defs>
  
  <rect width="400" height="400" fill="url(#bgGrad3)"/>
  
  <!-- Bottle -->
  <rect x="165" y="75" width="70" height="25" rx="8" fill="#221011"/>
  <rect x="172" y="100" width="56" height="45" fill="#9a4c50" opacity="0.4"/>
  <path d="M 155 145 L 155 310 Q 155 335 180 335 L 220 335 Q 245 335 245 310 L 245 145 Z" fill="url(#oilGrad3)"/>
  <path d="M 155 145 Q 155 138 162 138 L 238 138 Q 245 138 245 145 Z" fill="#9a4c50" opacity="0.5"/>
  
  <!-- Oil with garlic pieces -->
  <ellipse cx="200" cy="240" rx="55" ry="75" fill="#c97a2a" opacity="0.4"/>
  <ellipse cx="200" cy="240" rx="55" ry="75" fill="#ec131e" opacity="0.5"/>
  
  <!-- Garlic pieces (white/cream colored) -->
  <ellipse cx="190" cy="225" rx="6" ry="4" fill="#f8f6f6" opacity="0.8"/>
  <ellipse cx="210" cy="235" rx="5" ry="3" fill="#f8f6f6" opacity="0.8"/>
  <ellipse cx="195" cy="255" rx="5.5" ry="4" fill="#f8f6f6" opacity="0.8"/>
  <ellipse cx="205" cy="270" rx="6" ry="3.5" fill="#f8f6f6" opacity="0.8"/>
  <ellipse cx="188" cy="280" rx="5" ry="3" fill="#f8f6f6" opacity="0.8"/>
  
  <!-- Chili flakes mixed in -->
  <circle cx="185" cy="240" r="3" fill="#c40e18"/>
  <circle cx="215" cy="250" r="2.5" fill="#c40e18"/>
  <circle cx="200" cy="290" r="3" fill="#c40e18"/>
  
  <!-- Label -->
  <rect x="160" y="180" width="80" height="100" rx="10" fill="white" opacity="0.95"/>
  <text x="200" y="205" font-family="Arial, sans-serif" font-size="14" font-weight="bold" fill="#ec131e" text-anchor="middle">RED EMBER</text>
  <text x="200" y="225" font-family="Arial, sans-serif" font-size="16" font-weight="bold" fill="#1b0d0e" text-anchor="middle">Garlic</text>
  <text x="200" y="242" font-family="Arial, sans-serif" font-size="16" font-weight="bold" fill="#1b0d0e" text-anchor="middle">Infusion</text>
  <rect x="175" y="250" width="50" height="1" fill="#e7cfd0"/>
  <text x="200" y="265" font-family="Arial, sans-serif" font-size="9" fill="#9a4c50" text-anchor="middle">Roasted Garlic</text>
</svg>
